<svg width="181" height="190" viewBox="0 0 181 190" fill="none" xmlns="http://www.w3.org/2000/svg">
<path d="M158.42 190.318H180.31C180.31 190.318 158.777 60.4284 156.897 43.2388C155.006 26.0599 154.444 9.24847 138.011 5.66145C121.589 2.07442 117.429 0 117.429 0C117.429 0 108.623 9.27008 90.4506 9.27008C72.2778 9.27008 63.4615 0.0108043 63.4615 0.0108043C63.4615 0.0108043 59.3127 2.08523 42.8794 5.67225C26.4568 9.25928 25.8842 26.0599 23.9935 43.2496C22.1135 60.4284 0.580566 190.318 0.580566 190.318H22.4701L46.6501 70.0334C46.6501 70.0334 48.9838 77.8557 51.3931 83.9601C50.626 90.2374 41.1507 150.288 41.1507 150.288C61.4952 164.333 119.395 164.333 139.74 150.288C139.74 150.288 130.264 90.2374 129.497 83.9601C131.907 77.8557 134.24 70.0334 134.24 70.0334L158.42 190.318Z" fill="white" stroke="#020600" stroke-width="1.08043" stroke-linecap="round" stroke-linejoin="round"/>
<path d="M46.6393 70.0323C46.6393 70.0323 35.5109 34.7454 65.3415 10.3926" stroke="#020600" stroke-width="1.08043" stroke-linecap="round" stroke-linejoin="round"/>
<path d="M20.4712 186.514L45.5155 64.998" stroke="#020600" stroke-width="1.08043" stroke-linecap="round" stroke-linejoin="round"/>
<path d="M1.20703 186.517H22.5671" stroke="#020600" stroke-width="1.08043" stroke-linecap="round" stroke-linejoin="round"/>
<path d="M41.8853 146.711C62.2297 160.756 118.585 160.27 138.929 146.225" stroke="#020600" stroke-width="1.08043" stroke-linecap="round" stroke-linejoin="round"/>
<path d="M126.181 3.22883C126.181 3.22883 114.912 15.1352 90.4401 15.1352C65.9683 15.1352 54.6562 3.1748 54.6562 3.1748" stroke="#020600" stroke-width="1.08043" stroke-linecap="round" stroke-linejoin="round"/>
<path d="M134.24 70.0323C134.24 70.0323 145.369 34.7454 115.538 10.3926" stroke="#020600" stroke-width="1.08043" stroke-linecap="round" stroke-linejoin="round"/>
<path d="M160.409 186.514L135.375 64.998" stroke="#020600" stroke-width="1.08043" stroke-linecap="round" stroke-linejoin="round"/>
<path d="M179.673 186.517H158.312" stroke="#020600" stroke-width="1.08043" stroke-linecap="round" stroke-linejoin="round"/>
<path d="M90.4398 9.2818C108.613 9.2818 117.418 0.0117188 117.418 0.0117188C93.0436 5.56512 63.4507 0.0117188 63.4507 0.0117188C63.4507 0.0117188 72.2562 9.2818 90.429 9.2818H90.4398Z" fill="#CECECE" stroke="#020600" stroke-width="1.08043" stroke-linecap="round" stroke-linejoin="round"/>
<path d="M68.3672 80.761C71.9542 79.9075 75.5953 79.3132 79.2579 78.9027C82.9206 78.4813 86.6048 78.2868 90.2999 78.222C93.9842 78.1788 97.6792 78.3625 101.353 78.7622C105.026 79.1188 108.646 79.8751 112.222 80.761C110.407 80.4477 108.613 80.0155 106.787 79.821L104.054 79.4321L101.309 79.1728C97.6468 78.8703 93.9842 78.6866 90.3107 78.7622C86.6372 78.773 82.9638 78.9783 79.3119 79.3132C77.486 79.4861 75.6601 79.6806 73.8342 79.9291C72.0082 80.156 70.1931 80.4261 68.378 80.761H68.3672Z" fill="#020600"/>
<path d="M50.4747 114.99C51.0149 116.535 51.5983 118.069 52.2142 119.571C52.8408 121.073 53.4783 122.575 54.213 124.033C54.8936 125.514 55.6931 126.929 56.5035 128.344C57.3138 129.76 58.243 131.099 59.1937 132.439C58.0701 131.24 57.0545 129.943 56.1577 128.571C55.261 127.188 54.4507 125.751 53.7268 124.282C53.0353 122.791 52.3762 121.278 51.8252 119.733C51.285 118.188 50.7988 116.611 50.4639 115.001L50.4747 114.99Z" fill="#020600"/>
<path d="M54.6562 97.087C55.2181 98.5672 55.8447 100.026 56.5146 101.463C57.1628 102.91 57.8543 104.337 58.5674 105.752C60.0044 108.572 61.5494 111.338 63.2673 113.996C64.9311 116.686 66.8435 119.214 68.8531 121.656L70.4089 123.449C70.9275 124.054 71.5109 124.584 72.062 125.157C73.1208 126.334 74.3741 127.328 75.5409 128.398C73.0127 126.475 70.6358 124.335 68.5398 121.926C66.4545 119.517 64.5314 116.967 62.8243 114.277C61.1388 111.576 59.5722 108.799 58.2109 105.925C56.8495 103.051 55.6394 100.101 54.6671 97.0762L54.6562 97.087Z" fill="#020600"/>
<path d="M31.2324 51.46C32.9071 51.7409 34.4737 52.4864 35.9215 53.3723C37.3801 54.2691 38.6766 55.3819 39.8867 56.5704C41.0751 57.7913 42.1231 59.131 43.0739 60.5464C43.5385 61.2486 43.9491 61.9941 44.392 62.718C44.7702 63.4743 45.1483 64.2306 45.5049 64.9977L44.1652 62.8585C43.679 62.167 43.236 61.4539 42.739 60.7841C41.7342 59.4443 40.7078 58.1262 39.5085 56.9485C38.3524 55.7493 37.0775 54.658 35.7054 53.7181C34.3224 52.7889 32.8531 51.957 31.2324 51.46Z" fill="#020600"/>
<path d="M31.2324 35.8057C33.2744 37.3291 34.9383 39.3063 36.4401 41.3591C37.9311 43.4227 39.1736 45.6592 40.308 47.9389C41.4317 50.2294 42.3392 52.6063 43.1604 55.0157C43.5493 56.2258 43.895 57.4467 44.2516 58.6675L45.1159 62.3734L43.9923 58.7432C43.5709 57.5439 43.1928 56.3446 42.7606 55.1561C41.8638 52.8008 40.9671 50.4347 39.811 48.1766C38.7306 45.8969 37.4881 43.6928 36.0944 41.5968C35.3813 40.5596 34.6466 39.5223 33.8363 38.5608C33.0475 37.5776 32.194 36.6268 31.2324 35.8165V35.8057Z" fill="#020600"/>
<path d="M130.416 114.987C130.081 116.597 129.606 118.164 129.055 119.72C128.504 121.265 127.855 122.777 127.153 124.268C126.429 125.748 125.619 127.185 124.722 128.558C123.825 129.941 122.799 131.237 121.686 132.425C122.637 131.086 123.555 129.746 124.376 128.331C125.187 126.915 125.986 125.5 126.667 124.02C127.391 122.561 128.039 121.07 128.666 119.558C129.281 118.045 129.865 116.522 130.405 114.977L130.416 114.987Z" fill="#020600"/>
<path d="M126.235 97.0869C125.273 100.112 124.063 103.062 122.691 105.936C121.33 108.81 119.763 111.586 118.077 114.287C116.36 116.978 114.436 119.527 112.362 121.937C110.266 124.335 107.889 126.485 105.361 128.409C106.528 127.328 107.77 126.345 108.84 125.167C109.391 124.595 109.974 124.065 110.493 123.46L112.049 121.667C114.047 119.225 115.96 116.697 117.635 114.006C119.342 111.349 120.897 108.583 122.334 105.763C123.047 104.347 123.739 102.921 124.387 101.473C125.057 100.036 125.684 98.5779 126.246 97.0977L126.235 97.0869Z" fill="#020600"/>
<path d="M149.647 51.46C148.038 51.957 146.557 52.7781 145.174 53.7181C143.802 54.6688 142.527 55.7493 141.371 56.9485C140.172 58.1154 139.146 59.4443 138.141 60.7841C137.633 61.4539 137.19 62.167 136.715 62.8585L135.375 64.9977C135.732 64.2306 136.11 63.4743 136.488 62.718C136.931 61.9941 137.331 61.2486 137.806 60.5464C138.757 59.1418 139.805 57.7913 140.993 56.5704C142.203 55.3819 143.511 54.2583 144.958 53.3723C146.406 52.4972 147.973 51.7409 149.647 51.46Z" fill="#020600"/>
<path d="M149.648 35.8048C148.675 36.6259 147.833 37.5658 147.044 38.549C146.234 39.5106 145.499 40.5478 144.786 41.585C143.381 43.6811 142.149 45.8852 141.069 48.1649C139.924 50.4121 139.027 52.7783 138.119 55.1444C137.677 56.3329 137.298 57.5322 136.888 58.7315L135.764 62.3617L136.628 58.6558C136.996 57.4457 137.331 56.2141 137.72 55.004C138.541 52.6054 139.448 50.2177 140.572 47.9272C141.707 45.6475 142.949 43.411 144.44 41.3473C145.942 39.2945 147.606 37.3174 149.648 35.7939V35.8048Z" fill="#020600"/>
</svg>
